<svg width="16" height="16" viewBox="0 0 16 16" fill="none" xmlns="http://www.w3.org/2000/svg">
<g clip-path="url(#clip0_2624_5847)">
<path d="M10.3674 8.66665C10.8674 8.66665 11.3074 8.39331 11.534 7.97998L13.9207 3.65331C14.1674 3.21331 13.8474 2.66665 13.3407 2.66665H3.47403L2.84736 1.33331H0.667358V2.66665H2.00069L4.40069 7.72665L3.50069 9.35331C3.01402 10.2466 3.65402 11.3333 4.66736 11.3333H12.6674V9.99998H4.66736L5.40069 8.66665H10.3674ZM4.10736 3.99998H12.2074L10.3674 7.33331H5.68736L4.10736 3.99998ZM4.66736 12C3.93402 12 3.34069 12.6 3.34069 13.3333C3.34069 14.0666 3.93402 14.6666 4.66736 14.6666C5.40069 14.6666 6.00069 14.0666 6.00069 13.3333C6.00069 12.6 5.40069 12 4.66736 12ZM11.334 12C10.6007 12 10.0074 12.6 10.0074 13.3333C10.0074 14.0666 10.6007 14.6666 11.334 14.6666C12.0674 14.6666 12.6674 14.0666 12.6674 13.3333C12.6674 12.6 12.0674 12 11.334 12Z" fill="#1071FF"/>
</g>
<defs>
<clipPath id="clip0_2624_5847">
<rect width="16" height="16" fill="white" transform="translate(0.000732422)"/>
</clipPath>
</defs>
</svg>
